<?xml version="1.0" encoding="utf-8"?>
<!-- Generator: Adobe Illustrator 16.0.0, SVG Export Plug-In . SVG Version: 6.00 Build 0)  -->
<!DOCTYPE svg PUBLIC "-//W3C//DTD SVG 1.1//EN" "http://www.w3.org/Graphics/SVG/1.1/DTD/svg11.dtd">
<svg version="1.1" id="RacketLogger_Logo_1_" xmlns="http://www.w3.org/2000/svg" xmlns:xlink="http://www.w3.org/1999/xlink"
	 x="0px" y="0px" width="340px" height="340px" viewBox="2.617 55.25 340 340" enable-background="new 2.617 55.25 340 340"
	 xml:space="preserve">
<g id="white_bg">
	<rect x="29.236" y="81.828" fill="#FFFFFF" width="292.977" height="286.344"/>
</g>
<g id="clipping_mask">
	<g>
		<g>
			<g>
				<g>
					<g>
						<g>
							<g>
								<defs>
									<path id="SVGID_1_" d="M29.003,371.995c0,0,0,0-0.48-230.593c94.145,0,170.325,103.78,170.325,232.031L29.003,371.995z"/>
								</defs>
								<clipPath id="SVGID_2_">
									<use xlink:href="#SVGID_1_"  overflow="visible"/>
								</clipPath>
								<g id="Strings" clip-path="url(#SVGID_2_)">
									<g>
										
											<line fill="none" stroke="#D4632D" stroke-width="9" stroke-miterlimit="10" x1="33.552" y1="325.493" x2="322.068" y2="325.493"/>
										
											<line fill="none" stroke="#D4632D" stroke-width="9" stroke-miterlimit="10" x1="33.552" y1="258.093" x2="322.068" y2="258.093"/>
										
											<line fill="none" stroke="#D4632D" stroke-width="9" stroke-miterlimit="10" x1="33.552" y1="190.527" x2="322.068" y2="190.527"/>
										
											<line fill="none" stroke="#D4632D" stroke-width="9" stroke-miterlimit="10" x1="33.552" y1="123.126" x2="322.068" y2="123.126"/>
										
											<line fill="none" stroke="#D4632D" stroke-width="9" stroke-miterlimit="10" x1="296.004" y1="73.776" x2="296.004" y2="376.28"/>
										
											<line fill="none" stroke="#D4632D" stroke-width="9" stroke-miterlimit="10" x1="240.534" y1="73.776" x2="240.534" y2="376.28"/>
										
											<line fill="none" stroke="#D4632D" stroke-width="9" stroke-miterlimit="10" x1="184.979" y1="73.776" x2="184.979" y2="376.28"/>
										
											<line fill="none" stroke="#D4632D" stroke-width="9" stroke-miterlimit="10" x1="129.43" y1="73.776" x2="129.43" y2="376.28"/>
										
											<line fill="none" stroke="#D4632D" stroke-width="9" stroke-miterlimit="10" x1="73.96" y1="73.776" x2="73.96" y2="376.28"/>
									</g>
								</g>
							</g>
						</g>
					</g>
				</g>
			</g>
		</g>
	</g>
</g>
<g id="frame">
	<path fill="none" stroke="#000000" stroke-width="30" stroke-miterlimit="10" d="M189.439,372.434
		c0-130.309-70.693-235.751-158.061-235.751"/>
</g>
<g id="Rectangle">
	<g id="icomoon-ignore">
	</g>
	<path fill="#3A5DAE" d="M273.072,86.16H72.163c-10.625,0-19.721,3.784-27.287,11.35c-7.566,7.566-11.35,16.662-11.35,27.286v200.91
		c0,10.626,3.784,19.722,11.35,27.288c7.566,7.562,16.662,11.35,27.287,11.35h200.91c10.625,0,19.721-3.784,27.286-11.35
		c7.563-7.566,11.351-16.662,11.351-27.288V124.794c0-10.625-3.784-19.721-11.351-27.286
		C292.792,89.942,283.695,86.16,273.072,86.16z M342.617,124.794v200.91c0,19.157-6.803,35.538-20.404,49.141
		c-13.604,13.604-29.982,20.405-49.141,20.405H72.163c-19.156,0-35.538-6.803-49.141-20.405
		c-13.603-13.602-20.405-29.979-20.405-49.14V124.794c0-19.157,6.802-35.538,20.405-49.141C36.625,62.051,53.005,55.25,72.163,55.25
		h200.91c19.157,0,35.536,6.802,49.141,20.404C335.814,89.257,342.617,105.638,342.617,124.794z"/>
</g>
<ellipse fill="#43B02A" cx="228.275" cy="160.842" rx="54.207" ry="55.181"/>
<g id="Ball">
	<path fill="#FFE900" d="M198.359,125.734c5.047-5.146,13.129-9.525,22.547-11.245c3.104-0.566,4.982,0.911,5.093,4.185
		c0.659,19.451,14.438,37.318,32.646,43.106c3.437,1.092,6.957,1.687,10.549,1.771c3.209,0.076,4.811,2.053,4.262,5.324
		c-3.268,19.454-18.232,34.891-37.042,38.199c-2.954,0.52-4.942-1.017-5.035-4.019c-0.614-20.205-14.979-37.854-33.081-43.327
		c-3.453-1.042-6.979-1.541-10.564-1.722c-2.849-0.142-4.351-2.193-3.854-5.155c0.548-3.294,1.437-6.497,2.638-9.595
		C188.809,137.331,192.204,132.091,198.359,125.734z"/>
	<path fill="#FFE900" d="M196.65,194.058c-6.285-6.521-10.342-14.143-12.312-22.953c-0.747-3.346,1.082-5.663,4.393-5.448
		c8.228,0.534,15.359,3.849,21.574,9.336c5.646,4.987,9.779,11.082,12.078,18.429c0.914,2.909,1.493,5.894,1.594,8.958
		c0.094,3.057-2.121,4.953-5,4.289C210.312,204.668,202.831,200.433,196.65,194.058z"/>
	<path fill="#FFE900" d="M244.564,144.175c-6.17-6.553-10.168-14.286-11.084-23.568c-0.097-0.966-0.225-1.945,0.033-2.911
		c0.562-2.136,2.568-3.336,4.791-2.837c7.284,1.638,13.818,4.901,19.504,9.869c7.907,6.916,13.064,15.605,15.295,26.096
		c0.605,2.852-1.201,5.123-4.012,5.085c-0.55-0.009-1.102-0.041-1.646-0.1C258.469,154.836,251,150.69,244.564,144.175z"/>
</g>
</svg>
